<svg id="visual" viewBox="0 0 900 600" width="900" height="600" xmlns="http://www.w3.org/2000/svg" xmlns:xlink="http://www.w3.org/1999/xlink" version="1.1"><g><g transform="translate(533 86)"><path d="M116.5 -38.2C131.1 7.4 109.6 64.3 67.3 95.8C25 127.3 -38.2 133.4 -79.4 104.5C-120.6 75.7 -139.9 12 -123 -36.6C-106.1 -85.2 -53.1 -118.7 -1.1 -118.3C50.9 -118 101.8 -83.8 116.5 -38.2Z" fill="#3f709a"></path></g><g transform="translate(569 516)"><path d="M53.5 -16.5C60 2.6 49.5 28.2 30.4 42.1C11.3 56.1 -16.5 58.5 -32.7 46.3C-48.9 34.2 -53.6 7.6 -46.3 -12.7C-38.9 -33 -19.5 -47 2 -47.6C23.5 -48.3 47 -35.6 53.5 -16.5Z" fill="#3f709a"></path></g><g transform="translate(98 32)"><path d="M97.9 -29.9C111.7 10.7 97.2 62.3 61 90.2C24.7 118 -33.5 122 -72.3 94.9C-111.2 67.8 -130.8 9.5 -115.5 -33.1C-100.2 -75.6 -50.1 -102.4 -4 -101.1C42 -99.7 84.1 -70.4 97.9 -29.9Z" fill="#3f709a"></path></g><g transform="translate(104 401)"><path d="M68 -25.2C75.4 0.6 59.8 30.7 36.7 46.5C13.6 62.3 -17 63.9 -37.2 49.6C-57.4 35.3 -67.2 5.1 -59.3 -21.5C-51.4 -48 -25.7 -71 2.3 -71.7C30.3 -72.5 60.7 -51 68 -25.2Z" fill="#3f709a"></path></g><g transform="translate(857 227)"><path d="M56 -16.3C63.1 3.7 52.9 31.2 33.6 45C14.3 58.7 -14.1 58.6 -31.9 45.4C-49.7 32.1 -56.9 5.6 -49.8 -14.3C-42.7 -34.2 -21.4 -47.7 1.5 -48.2C24.4 -48.7 48.9 -36.2 56 -16.3Z" fill="#3f709a"></path></g></g></svg>